<?xml version="1.0" encoding="UTF-8" standalone="no"?><!DOCTYPE svg PUBLIC "-//W3C//DTD SVG 1.1//EN" "http://www.w3.org/Graphics/SVG/1.1/DTD/svg11.dtd"><svg width="50%" height="50%" viewBox="0 0 557 369" version="1.1" xmlns="http://www.w3.org/2000/svg" xmlns:xlink="http://www.w3.org/1999/xlink" xml:space="preserve" xmlns:serif="http://www.serif.com/" style="fill-rule:evenodd;clip-rule:evenodd;stroke-linecap:round;stroke-linejoin:round;stroke-miterlimit:1.5;"><g id="Bunny2"><g><path id="outline" d="M515.388,329.489c1.576,1.703 3.009,3.593 4.251,5.73c3.785,6.515 -1.135,13.248 -5.939,17.374c-13.225,11.358 -31.873,11.408 -46.672,3.067c-8.554,-4.821 -16.615,-10.507 -24.472,-16.397l-36.947,-26.934c-47.22,-32.629 -108.086,-19.363 -158.035,-2.204c-32.574,28.512 -70.158,49.168 -113.152,31.496c-6.71,-2.758 -12.996,-6.525 -19.055,-10.516c-5.259,-3.464 -22.342,-21.492 -31.763,-27.744c-12.235,17.611 -30.265,34.18 -51.111,40.559c-9.182,2.809 -27.938,-1.574 -25.278,-14.815c2.366,-11.78 9.559,-20.595 15.702,-30.425c11.056,-17.691 36.771,-50.716 36.771,-50.716c-0,-0 13.073,-0.828 19.001,-1.981c7.686,-1.495 18.737,-6.939 24.381,-12.438c3.35,-3.263 5.899,-7.063 7.952,-11.172c-2.369,0.645 -4.816,0.949 -7.314,0.874c-19.024,-0.565 -33.821,-22.855 -33.022,-49.745c0.8,-26.889 16.894,-48.261 35.919,-47.695c15.836,0.471 28.742,15.994 32.163,36.693c12.728,-13.211 29.866,-23.278 45.813,-29.3c42.997,-16.237 86.843,-15.871 130.049,0.24c22.821,8.509 56.624,34.607 82.888,16.856c2.805,-1.896 5.43,-4.209 7.384,-6.973c12.738,-18.019 -9.501,-35.754 -19.143,-47.904c-3.56,-4.485 -7.694,-8.765 -9.864,-14.064c-5.701,-13.913 -9.625,-28.511 -13.529,-43.031c-3.417,-12.711 3.401,-27.963 17.066,-30.664c9.36,-1.85 20.804,8.801 25.943,14.334c10.391,11.188 20.447,22.715 29.851,34.743c8.471,10.836 7.948,25.59 15.985,36.692c10.424,14.399 27.084,14.605 42.545,20.443c19.591,7.397 33.62,23.732 46.745,39.202c3.572,4.21 8.521,12.862 9.185,18.515c2.396,20.389 -8.291,41.427 -24.97,52.948c-13.698,9.462 -33.976,6.47 -44.238,21.457c-2.929,4.276 -4.594,9.336 -6.162,14.276c-1.332,4.199 -2.223,8.775 -2.555,13.439" style="fill:#efdcde;"/><clipPath id="_clip1"><path id="outline1" serif:id="outline" d="M515.388,329.489c1.576,1.703 3.009,3.593 4.251,5.73c3.785,6.515 -1.135,13.248 -5.939,17.374c-13.225,11.358 -31.873,11.408 -46.672,3.067c-8.554,-4.821 -16.615,-10.507 -24.472,-16.397l-36.947,-26.934c-47.22,-32.629 -108.086,-19.363 -158.035,-2.204c-32.574,28.512 -70.158,49.168 -113.152,31.496c-6.71,-2.758 -12.996,-6.525 -19.055,-10.516c-5.259,-3.464 -22.342,-21.492 -31.763,-27.744c-12.235,17.611 -30.265,34.18 -51.111,40.559c-9.182,2.809 -27.938,-1.574 -25.278,-14.815c2.366,-11.78 9.559,-20.595 15.702,-30.425c11.056,-17.691 36.771,-50.716 36.771,-50.716c-0,-0 13.073,-0.828 19.001,-1.981c7.686,-1.495 18.737,-6.939 24.381,-12.438c3.35,-3.263 5.899,-7.063 7.952,-11.172c-2.369,0.645 -4.816,0.949 -7.314,0.874c-19.024,-0.565 -33.821,-22.855 -33.022,-49.745c0.8,-26.889 16.894,-48.261 35.919,-47.695c15.836,0.471 28.742,15.994 32.163,36.693c12.728,-13.211 29.866,-23.278 45.813,-29.3c42.997,-16.237 86.843,-15.871 130.049,0.24c22.821,8.509 56.624,34.607 82.888,16.856c2.805,-1.896 5.43,-4.209 7.384,-6.973c12.738,-18.019 -9.501,-35.754 -19.143,-47.904c-3.56,-4.485 -7.694,-8.765 -9.864,-14.064c-5.701,-13.913 -9.625,-28.511 -13.529,-43.031c-3.417,-12.711 3.401,-27.963 17.066,-30.664c9.36,-1.85 20.804,8.801 25.943,14.334c10.391,11.188 20.447,22.715 29.851,34.743c8.471,10.836 7.948,25.59 15.985,36.692c10.424,14.399 27.084,14.605 42.545,20.443c19.591,7.397 33.62,23.732 46.745,39.202c3.572,4.21 8.521,12.862 9.185,18.515c2.396,20.389 -8.291,41.427 -24.97,52.948c-13.698,9.462 -33.976,6.47 -44.238,21.457c-2.929,4.276 -4.594,9.336 -6.162,14.276c-1.332,4.199 -2.223,8.775 -2.555,13.439"/></clipPath><g clip-path="url(#_clip1)"><path d="M536.655,156.527c0.107,0.049 -8.108,-3.612 -8.001,-3.563c4.506,2.054 19.117,8.005 21.416,11.731c4.28,6.934 1.914,10.959 -6.13,18.841l-7.285,-27.009Z" style="fill:#f4afc2;"/><path d="M171.146,86.807l-124.019,-53.694l-64.384,148.712l124.019,53.694l64.384,-148.712Z" style="fill:#f4afc2;"/><path d="M381.115,27.676c2.375,1.476 4.656,2.916 5.557,3.55c16.702,11.762 28.833,23.924 38.652,42.023c3.101,5.716 4.882,12.684 7.361,19.114c0.774,2.008 1.598,3.977 2.485,5.892l-16.778,7.982c-0.042,-0.072 -0.083,-0.143 -0.126,-0.215c-5.289,-9.003 -13.548,-17.437 -16.996,-22.714c-6.838,-10.463 -13.867,-25.754 -17.403,-37.622c-1.193,-4.004 -2.782,-11.145 -2.752,-18.01Z" style="fill:#f4afc2;"/></g><path id="outline2" serif:id="outline" d="M515.388,329.489c1.576,1.703 3.009,3.593 4.251,5.73c3.785,6.515 -1.135,13.248 -5.939,17.374c-13.225,11.358 -31.873,11.408 -46.672,3.067c-8.554,-4.821 -16.615,-10.507 -24.472,-16.397l-36.947,-26.934c-47.22,-32.629 -108.086,-19.363 -158.035,-2.204c-32.574,28.512 -70.158,49.168 -113.152,31.496c-6.71,-2.758 -12.996,-6.525 -19.055,-10.516c-5.259,-3.464 -22.342,-21.492 -31.763,-27.744c-12.235,17.611 -30.265,34.18 -51.111,40.559c-9.182,2.809 -27.938,-1.574 -25.278,-14.815c2.366,-11.78 9.559,-20.595 15.702,-30.425c11.056,-17.691 36.771,-50.716 36.771,-50.716c-0,-0 13.073,-0.828 19.001,-1.981c7.686,-1.495 18.737,-6.939 24.381,-12.438c3.35,-3.263 5.899,-7.063 7.952,-11.172c-2.369,0.645 -4.816,0.949 -7.314,0.874c-19.024,-0.565 -33.821,-22.855 -33.022,-49.745c0.8,-26.889 16.894,-48.261 35.919,-47.695c15.836,0.471 28.742,15.994 32.163,36.693c12.728,-13.211 29.866,-23.278 45.813,-29.3c42.997,-16.237 86.843,-15.871 130.049,0.24c22.821,8.509 56.624,34.607 82.888,16.856c2.805,-1.896 5.43,-4.209 7.384,-6.973c12.738,-18.019 -9.501,-35.754 -19.143,-47.904c-3.56,-4.485 -7.694,-8.765 -9.864,-14.064c-5.701,-13.913 -9.625,-28.511 -13.529,-43.031c-3.417,-12.711 3.401,-27.963 17.066,-30.664c9.36,-1.85 20.804,8.801 25.943,14.334c10.391,11.188 20.447,22.715 29.851,34.743c8.471,10.836 7.948,25.59 15.985,36.692c10.424,14.399 27.084,14.605 42.545,20.443c19.591,7.397 33.62,23.732 46.745,39.202c3.572,4.21 8.521,12.862 9.185,18.515c2.396,20.389 -8.291,41.427 -24.97,52.948c-13.698,9.462 -33.976,6.47 -44.238,21.457c-2.929,4.276 -4.594,9.336 -6.162,14.276c-1.332,4.199 -2.223,8.775 -2.555,13.439" style="fill:none;stroke:#5e2b39;stroke-width:12.15px;"/><path d="M515.388,329.489c-11.349,-12.26 -30.132,-14.812 -38.738,-30.33c-4.15,-7.482 -5.519,-16.622 -4.889,-25.45c1.084,0.306 2.144,0.777 3.144,1.419l45.322,29.094c5.284,3.393 6.91,10.298 3.628,15.41c0,0 -4.045,5.338 -8.467,9.857Z" style="fill:#f4afc2;stroke:#5e2b39;stroke-width:12.65px;"/><path d="M462.083,155.605c12.643,-0.253 23.112,9.794 23.364,22.421c0.252,12.627 -9.808,23.083 -22.451,23.335c-12.644,0.253 -23.113,-9.794 -23.365,-22.421c-0.251,-12.627 9.809,-23.083 22.452,-23.335Z" style="fill:#ea688c;"/><path d="M459.771,169.51l-7.576,11.799" style="fill:none;stroke:#c65574;stroke-width:6.87px;"/><path d="M472.241,175.507l-10.702,16.668" style="fill:none;stroke:#c65574;stroke-width:6.87px;"/><path d="M499.105,162.669c-12.303,-12.954 -24.178,-0.657 -24.178,-0.657" style="fill:none;stroke:#5e2b39;stroke-width:12.65px;"/><g><path d="M180.574,346.795l2.597,16.305" style="fill:none;stroke:#5e2b39;stroke-width:6.87px;"/><path d="M184.059,344.067l9.495,12.805" style="fill:none;stroke:#5e2b39;stroke-width:6.87px;"/></g><g><path d="M479.991,255.261l11.255,12.079" style="fill:none;stroke:#5e2b39;stroke-width:6.87px;"/><path d="M481.36,251.053l15.026,5.325" style="fill:none;stroke:#5e2b39;stroke-width:6.87px;"/></g><g><path d="M328.724,137.123l6.937,-14.982" style="fill:none;stroke:#5e2b39;stroke-width:6.87px;"/><path d="M324.31,137.444l-0.74,-15.925" style="fill:none;stroke:#5e2b39;stroke-width:6.87px;"/></g><g><path d="M189.257,129.741l-3.472,-16.141" style="fill:none;stroke:#5e2b39;stroke-width:6.87px;"/><path d="M185.925,132.653l-10.172,-12.275" style="fill:none;stroke:#5e2b39;stroke-width:6.87px;"/></g></g></g></svg>