<?xml version="1.0" encoding="UTF-8" standalone="no"?><!DOCTYPE svg PUBLIC "-//W3C//DTD SVG 1.1//EN" "http://www.w3.org/Graphics/SVG/1.1/DTD/svg11.dtd"><svg width="100%" height="100%" viewBox="0 0 873 709" version="1.1" xmlns="http://www.w3.org/2000/svg" xmlns:xlink="http://www.w3.org/1999/xlink" xml:space="preserve" xmlns:serif="http://www.serif.com/" style="fill-rule:evenodd;clip-rule:evenodd;stroke-linecap:round;stroke-linejoin:round;stroke-miterlimit:1.5;"><g id="bunny3"><path d="M639.351,570.56c-3.154,-11.08 -14.417,-17.598 -25.136,-14.547l-38.841,11.057c-10.719,3.051 -35.88,7.251 -32.727,18.33c0,0 32.803,68.875 41.5,87.136c4.213,8.847 17.185,18.199 28.609,21.307c11.424,3.108 39.936,-2.658 39.936,-2.658c10.719,-3.051 16.86,-14.523 13.707,-25.603l-27.048,-95.022Z" style="fill:#f4afc2;stroke:#5e2b39;stroke-width:18.97px;"/><g><path d="M693.159,492.831l18.223,25.236" style="fill:none;stroke:#5e2b39;stroke-width:10.31px;"/><path d="M696.965,485.607l27.352,14.109" style="fill:none;stroke:#5e2b39;stroke-width:10.31px;"/></g><g><path d="M97.465,498.971l-27.906,14.424" style="fill:none;stroke:#5e2b39;stroke-width:10.31px;"/><path d="M104.776,503.35l-16.891,24.252" style="fill:none;stroke:#5e2b39;stroke-width:10.31px;"/></g><g><path d="M190.935,206.978l-9.327,-29.643" style="fill:none;stroke:#5e2b39;stroke-width:10.31px;"/><path d="M185.034,212.634l-21.52,-21.959" style="fill:none;stroke:#5e2b39;stroke-width:10.31px;"/></g><g><path d="M368.213,196.522l9.154,-28.91" style="fill:none;stroke:#5e2b39;stroke-width:10.31px;"/><path d="M359.828,198.13l-5.847,-28.848" style="fill:none;stroke:#5e2b39;stroke-width:10.31px;"/></g><path d="M74.206,352.925c-26.275,-7.443 -50.248,-35.276 -59.103,-72.343c-11.609,-48.598 7.136,-94.782 41.835,-103.071c33.583,-8.023 69.88,22.374 82.704,68.397c7.13,-6.871 14.527,-13.164 22.057,-18.752c50.977,-37.831 113.6,-43.659 174.732,-32.55c23.713,4.309 47.306,17.131 68.072,27.965c31.373,16.367 26.978,21.939 65.195,52.577c34.327,27.519 84.876,29.102 116.921,-1.702c21.537,-20.703 -7.896,-52.211 -18.203,-68.095c-24.229,-37.338 -46.795,-74.956 -53.155,-120.564c-2.561,-18.365 -8.244,-58.072 16.019,-68.83c29.61,-13.129 42.881,3.366 82.011,49.09c31.328,36.607 27.835,50.091 45.631,87.073c8.635,17.945 15.239,30.474 29.934,44.133c23.356,21.708 57.739,9.52 84.521,22.985c34.478,17.333 50.439,69.947 68.537,100.527c4.828,8.157 16.317,19.659 19.22,30.147c2.899,10.472 -2.822,20.614 -6.795,29.68c-14.605,33.337 -42.02,53.084 -77.285,60.701c-11.164,2.412 -22.653,2.951 -34.012,4.141c-5.361,0.562 -18.061,-0.482 -22.242,4.832c-35.904,45.636 -61.085,99.483 -98.633,144.216c-44.683,53.235 -115.597,85.848 -180.241,104.13c-10.85,3.068 -18.985,-4.785 -23.148,-13.89c-7.166,-15.673 -5.291,-36.531 6.083,-49.841c11.7,-13.693 29.589,-20.398 41.911,-33.867c4.064,-4.442 12.774,-12.703 7.903,-16.24c-28.303,-20.547 -66.681,-38.044 -99.269,-50.963c-20.579,-8.157 -30.391,-11.56 -52.553,-7.251c-11.243,2.185 -22.306,5.701 -32.741,10.422c-10.531,4.764 -20.585,10.777 -29.734,17.84c-3.794,2.93 3.294,9.335 6.662,12.746c5.942,6.018 12.04,11.943 18.744,17.099c21.379,16.444 43.501,23.026 35.527,53.66c-1.062,4.08 -1.633,8.957 -4.852,11.679c-5.045,4.265 -11.914,5.82 -18.211,7.819c-29.992,9.517 -49.936,-6.223 -75.332,-21.53c-14.837,-8.943 -29.736,-17.805 -44.188,-27.357c-8.611,-5.691 -16.789,-12.022 -24.952,-18.34c0.731,-7.708 1.466,-15.454 1.245,-23.193c-0.312,-10.871 -2.314,-27.539 -10.583,-36.173c-16.068,-16.778 -53.076,-32.886 -61.174,-58.351c-8.087,-25.432 -16.551,-67.104 -13.523,-95.242c0.848,-7.879 2.363,-15.809 4.465,-23.714Z" style="fill:#efdcde;"/><clipPath id="_clip1"><path d="M74.206,352.925c-26.275,-7.443 -50.248,-35.276 -59.103,-72.343c-11.609,-48.598 7.136,-94.782 41.835,-103.071c33.583,-8.023 69.88,22.374 82.704,68.397c7.13,-6.871 14.527,-13.164 22.057,-18.752c50.977,-37.831 113.6,-43.659 174.732,-32.55c23.713,4.309 47.306,17.131 68.072,27.965c31.373,16.367 26.978,21.939 65.195,52.577c34.327,27.519 84.876,29.102 116.921,-1.702c21.537,-20.703 -7.896,-52.211 -18.203,-68.095c-24.229,-37.338 -46.795,-74.956 -53.155,-120.564c-2.561,-18.365 -8.244,-58.072 16.019,-68.83c29.61,-13.129 42.881,3.366 82.011,49.09c31.328,36.607 27.835,50.091 45.631,87.073c8.635,17.945 15.239,30.474 29.934,44.133c23.356,21.708 57.739,9.52 84.521,22.985c34.478,17.333 50.439,69.947 68.537,100.527c4.828,8.157 16.317,19.659 19.22,30.147c2.899,10.472 -2.822,20.614 -6.795,29.68c-14.605,33.337 -42.02,53.084 -77.285,60.701c-11.164,2.412 -22.653,2.951 -34.012,4.141c-5.361,0.562 -18.061,-0.482 -22.242,4.832c-35.904,45.636 -61.085,99.483 -98.633,144.216c-44.683,53.235 -115.597,85.848 -180.241,104.13c-10.85,3.068 -18.985,-4.785 -23.148,-13.89c-7.166,-15.673 -5.291,-36.531 6.083,-49.841c11.7,-13.693 29.589,-20.398 41.911,-33.867c4.064,-4.442 12.774,-12.703 7.903,-16.24c-28.303,-20.547 -66.681,-38.044 -99.269,-50.963c-20.579,-8.157 -30.391,-11.56 -52.553,-7.251c-11.243,2.185 -22.306,5.701 -32.741,10.422c-10.531,4.764 -20.585,10.777 -29.734,17.84c-3.794,2.93 3.294,9.335 6.662,12.746c5.942,6.018 12.04,11.943 18.744,17.099c21.379,16.444 43.501,23.026 35.527,53.66c-1.062,4.08 -1.633,8.957 -4.852,11.679c-5.045,4.265 -11.914,5.82 -18.211,7.819c-29.992,9.517 -49.936,-6.223 -75.332,-21.53c-14.837,-8.943 -29.736,-17.805 -44.188,-27.357c-8.611,-5.691 -16.789,-12.022 -24.952,-18.34c0.731,-7.708 1.466,-15.454 1.245,-23.193c-0.312,-10.871 -2.314,-27.539 -10.583,-36.173c-16.068,-16.778 -53.076,-32.886 -61.174,-58.351c-8.087,-25.432 -16.551,-67.104 -13.523,-95.242c0.848,-7.879 2.363,-15.809 4.465,-23.714Z"/></clipPath><g clip-path="url(#_clip1)"><path d="M172.746,193.627l-162.765,-93.982l-120.245,208.249l162.766,93.981l120.244,-208.248Z" style="fill:#f4afc2;"/><path d="M839.842,330.101c0.09,0.124 -6.824,-9.14 -6.734,-9.017c3.793,5.159 16.08,20.676 18.062,27.893c3.689,13.433 1.785,19.462 -4.79,30.023l-6.538,-48.899Z" style="fill:#f4afc2;"/></g><path d="M74.206,352.925c-26.275,-7.443 -50.248,-35.276 -59.103,-72.343c-11.609,-48.598 7.136,-94.782 41.835,-103.071c33.583,-8.023 69.88,22.374 82.704,68.397c7.13,-6.871 14.527,-13.164 22.057,-18.752c50.977,-37.831 113.6,-43.659 174.732,-32.55c23.713,4.309 47.306,17.131 68.072,27.965c31.373,16.367 26.978,21.939 65.195,52.577c34.327,27.519 84.876,29.102 116.921,-1.702c21.537,-20.703 -7.896,-52.211 -18.203,-68.095c-24.229,-37.338 -46.795,-74.956 -53.155,-120.564c-2.561,-18.365 -8.244,-58.072 16.019,-68.83c29.61,-13.129 42.881,3.366 82.011,49.09c31.328,36.607 27.835,50.091 45.631,87.073c8.635,17.945 15.239,30.474 29.934,44.133c23.356,21.708 57.739,9.52 84.521,22.985c34.478,17.333 50.439,69.947 68.537,100.527c4.828,8.157 16.317,19.659 19.22,30.147c2.899,10.472 -2.822,20.614 -6.795,29.68c-14.605,33.337 -42.02,53.084 -77.285,60.701c-11.164,2.412 -22.653,2.951 -34.012,4.141c-5.361,0.562 -18.061,-0.482 -22.242,4.832c-35.904,45.636 -61.085,99.483 -98.633,144.216c-44.683,53.235 -115.597,85.848 -180.241,104.13c-10.85,3.068 -18.985,-4.785 -23.148,-13.89c-7.166,-15.673 -5.291,-36.531 6.083,-49.841c11.7,-13.693 29.589,-20.398 41.911,-33.867c4.064,-4.442 12.774,-12.703 7.903,-16.24c-28.303,-20.547 -66.681,-38.044 -99.269,-50.963c-20.579,-8.157 -30.391,-11.56 -52.553,-7.251c-11.243,2.185 -22.306,5.701 -32.741,10.422c-10.531,4.764 -20.585,10.777 -29.734,17.84c-3.794,2.93 3.294,9.335 6.662,12.746c5.942,6.018 12.04,11.943 18.744,17.099c21.379,16.444 43.501,23.026 35.527,53.66c-1.062,4.08 -1.633,8.957 -4.852,11.679c-5.045,4.265 -11.914,5.82 -18.211,7.819c-29.992,9.517 -49.936,-6.223 -75.332,-21.53c-14.837,-8.943 -29.736,-17.805 -44.188,-27.357c-8.611,-5.691 -16.789,-12.022 -24.952,-18.34c0.731,-7.708 1.466,-15.454 1.245,-23.193c-0.312,-10.871 -2.314,-27.539 -10.583,-36.173c-16.068,-16.778 -53.076,-32.886 -61.174,-58.351c-8.087,-25.432 -16.551,-67.104 -13.523,-95.242c0.848,-7.879 2.363,-15.809 4.465,-23.714Z" style="fill:none;stroke:#5e2b39;stroke-width:19.28px;"/><path d="M709.128,306.883c23.193,-0.463 42.398,17.967 42.86,41.131c0.462,23.163 -17.992,42.344 -41.186,42.807c-23.193,0.463 -42.398,-17.967 -42.86,-41.131c-0.462,-23.163 17.993,-42.345 41.186,-42.807Z" style="fill:#ea688c;"/><path d="M777.042,319.841c-22.568,-23.763 -44.352,-1.205 -44.352,-1.205" style="fill:none;stroke:#5e2b39;stroke-width:18.97px;"/><path d="M727.359,341.715l-19.632,30.577" style="fill:none;stroke:#c65574;stroke-width:10.31px;"/><path d="M704.484,330.713l-13.897,21.645" style="fill:none;stroke:#c65574;stroke-width:10.31px;"/><path d="M540.183,41.213c6.284,4.281 15.798,10.821 18.529,13.005c30.072,24.055 51.458,48.368 67.846,83.554c5.147,11.05 7.732,24.274 11.631,36.586c1.799,5.678 3.818,11.205 6.167,16.467l-43.128,17.371c-0.826,-1.893 -1.717,-3.78 -2.671,-5.658c-8.625,-16.979 -22.741,-33.239 -28.43,-43.229c-11.62,-20.404 -23.045,-49.882 -28.312,-72.54c-1.94,-8.346 -4.295,-23.536 -2.983,-37.472c0.264,-2.794 0.672,-5.53 1.351,-8.084Z" style="fill:#f4afc2;"/></g></svg>