<?xml version="1.0" encoding="UTF-8" standalone="no"?><!DOCTYPE svg PUBLIC "-//W3C//DTD SVG 1.1//EN" "http://www.w3.org/Graphics/SVG/1.1/DTD/svg11.dtd"><svg width="100%" height="100%" viewBox="0 0 1134 741" version="1.1" xmlns="http://www.w3.org/2000/svg" xmlns:xlink="http://www.w3.org/1999/xlink" xml:space="preserve" xmlns:serif="http://www.serif.com/" style="fill-rule:evenodd;clip-rule:evenodd;stroke-linecap:round;stroke-linejoin:round;stroke-miterlimit:1.5;"><g id="Hawk1"><path d="M448.804,517.406l49.382,-50.818l78.565,-17.759l56.543,-16.262l47.934,-5.15c0,-0 49.748,8.741 72.728,7.874c40.121,-1.515 167.998,-16.963 167.998,-16.963c-0,-0 -9.465,19.217 -15.934,24.123c-6.033,4.575 -25.516,14.158 -25.516,14.158l25.655,0.94l111.479,-12.107c-0,-0 1.055,18.268 -10.735,21.464c-19.129,5.187 -43.509,12.723 -43.509,12.723l43.751,10.293l119.441,-1.449c-0,-0 -3.001,20.083 -18.522,22.207c-26.145,3.578 -94.205,5.882 -94.205,5.882l2.005,9.893l29.657,6.804l-5.903,17.554c-0,-0 -10.93,10.797 -23.093,11.399c-12.437,0.616 -56.368,-2.649 -56.368,-2.649c-0,-0 -19.722,14.83 -30.565,16.631c-10.843,1.801 -29.659,-10.88 -29.659,-10.88c-0,0 -30.878,20.705 -44.012,22.434c-10.256,1.351 -34.795,-12.056 -34.795,-12.056c-0,-0 -38.643,16.224 -49.026,16.199c-12.205,-0.03 -24.204,-16.376 -24.204,-16.376c0,0 -36.304,18.181 -49.805,17.759c-13.501,-0.423 -39.03,-22.99 -39.03,-22.99c0,-0 -25.012,13.955 -37.747,14.003c-12.734,0.048 -33.339,-18.67 -33.339,-18.67l-139.171,-48.211Z" style="fill:#ffb8a8;stroke:#4f1811;stroke-width:12.65px;"/><path d="M106.612,159.803c7.143,-4.975 15.859,-10.761 25.317,-16.422c-3.34,-2.051 -6.721,-4.124 -10.138,-6.216c-27.614,-16.906 -59.199,-35.945 -75.551,-49.722c-37.83,-31.876 -42.843,-55.31 -38.32,-61.472c6.478,-8.825 55.086,31.483 123.775,81.903c9.615,7.057 19.116,13.941 28.33,20.585c8.904,-4.038 17.774,-7.294 26.046,-9.132c-1.456,-1.177 -2.921,-2.361 -4.396,-3.552c-20.932,-16.899 -44.94,-35.955 -56.513,-49.421c-26.775,-31.154 -26.134,-52.923 -20.758,-58.356c7.701,-7.782 42.246,31.653 92.49,81.372c8.316,8.23 16.544,16.228 24.451,23.882c9.582,-1.435 18.851,-2.688 27.052,-3.731c-6.053,-6.625 -11.257,-12.795 -14.917,-18.071c-23.42,-33.749 -20.538,-55.336 -14.63,-60.186c8.462,-6.946 39.102,29.386 83.951,84.021c6.564,7.996 65.997,38.81 78.194,50.266c31.392,29.487 93.218,129.014 111.572,146.782c26.448,25.603 51.719,34.348 52.378,36.32c28.204,0.947 74.795,-10.974 88.01,-7.412c25.729,6.936 48.456,26.103 48.456,51.663c-0,9.758 -2.752,25.129 -10.002,35.197c3.995,19.567 5.578,51.81 5.578,51.81l-35.253,-34.642c-9.839,3.056 -17.475,3.129 -21.369,4.973c-4.27,13.238 -32.048,53.219 -47.956,62.483c-24.68,14.372 -49.706,38.09 -49.706,38.09c0,0 44.44,111.898 45.787,134.933c1.166,19.938 -40.511,7.516 -47.724,1.009c-3.741,-3.376 -10.943,35.892 -35.47,39.333c-9.279,1.302 -27.24,-30.041 -27.24,-30.041c-0,-0 -29.624,40.147 -47.075,36.963c-17.332,-3.162 -31.805,-43.831 -31.805,-43.831c-0,-0 -26.525,19.012 -52.085,16.964c-4.145,-0.332 -2.544,-45.714 -2.544,-45.714c0,0 -43.745,5.133 -53.575,-4.998c-4.047,-4.171 14.676,-39.519 14.676,-39.519c0,-0 -20.05,0.01 -37.999,-18.179c-4.565,-4.626 18.061,-32.26 18.061,-32.26c0,0 -25.454,-25.691 -14.576,-32.14c23.215,-13.765 148.259,-39.239 148.259,-39.239c0,0 0.015,-25.818 -7.275,-32.968c0,0 -24.365,0.394 -31.865,-6.805c-7.501,-7.199 -13.138,-36.387 -13.138,-36.387c-0,-0 -22.659,8.278 -42.97,-1.856c-14.326,-7.149 -20.497,-36.814 -20.497,-36.814c-0,0 -14.737,7.956 -41.496,-4.979c-12.461,-6.024 -17.246,-35.967 -17.246,-35.967c0,0 -39.674,-8.209 -43.403,-11.94c-8.632,-8.638 -14.775,-46.716 -14.775,-46.716c-0,0 -18.832,3.78 -36.419,-16.05c-7.109,-8.017 -9.489,-40.721 -9.489,-40.721c0,0 -24.481,-24.97 -26.569,-30.762c-31.777,-21.296 -36.995,-41.211 -33.534,-47.753c3.025,-5.717 19.792,1.634 45.895,15.425Z" style="fill:#fee2cc;"/><clipPath id="_clip1"><path d="M106.612,159.803c7.143,-4.975 15.859,-10.761 25.317,-16.422c-3.34,-2.051 -6.721,-4.124 -10.138,-6.216c-27.614,-16.906 -59.199,-35.945 -75.551,-49.722c-37.83,-31.876 -42.843,-55.31 -38.32,-61.472c6.478,-8.825 55.086,31.483 123.775,81.903c9.615,7.057 19.116,13.941 28.33,20.585c8.904,-4.038 17.774,-7.294 26.046,-9.132c-1.456,-1.177 -2.921,-2.361 -4.396,-3.552c-20.932,-16.899 -44.94,-35.955 -56.513,-49.421c-26.775,-31.154 -26.134,-52.923 -20.758,-58.356c7.701,-7.782 42.246,31.653 92.49,81.372c8.316,8.23 16.544,16.228 24.451,23.882c9.582,-1.435 18.851,-2.688 27.052,-3.731c-6.053,-6.625 -11.257,-12.795 -14.917,-18.071c-23.42,-33.749 -20.538,-55.336 -14.63,-60.186c8.462,-6.946 39.102,29.386 83.951,84.021c6.564,7.996 65.997,38.81 78.194,50.266c31.392,29.487 93.218,129.014 111.572,146.782c26.448,25.603 51.719,34.348 52.378,36.32c28.204,0.947 74.795,-10.974 88.01,-7.412c25.729,6.936 48.456,26.103 48.456,51.663c-0,9.758 -2.752,25.129 -10.002,35.197c3.995,19.567 5.578,51.81 5.578,51.81l-35.253,-34.642c-9.839,3.056 -17.475,3.129 -21.369,4.973c-4.27,13.238 -32.048,53.219 -47.956,62.483c-24.68,14.372 -49.706,38.09 -49.706,38.09c0,0 44.44,111.898 45.787,134.933c1.166,19.938 -40.511,7.516 -47.724,1.009c-3.741,-3.376 -10.943,35.892 -35.47,39.333c-9.279,1.302 -27.24,-30.041 -27.24,-30.041c-0,-0 -29.624,40.147 -47.075,36.963c-17.332,-3.162 -31.805,-43.831 -31.805,-43.831c-0,-0 -26.525,19.012 -52.085,16.964c-4.145,-0.332 -2.544,-45.714 -2.544,-45.714c0,0 -43.745,5.133 -53.575,-4.998c-4.047,-4.171 14.676,-39.519 14.676,-39.519c0,-0 -20.05,0.01 -37.999,-18.179c-4.565,-4.626 18.061,-32.26 18.061,-32.26c0,0 -25.454,-25.691 -14.576,-32.14c23.215,-13.765 148.259,-39.239 148.259,-39.239c0,0 0.015,-25.818 -7.275,-32.968c0,0 -24.365,0.394 -31.865,-6.805c-7.501,-7.199 -13.138,-36.387 -13.138,-36.387c-0,-0 -22.659,8.278 -42.97,-1.856c-14.326,-7.149 -20.497,-36.814 -20.497,-36.814c-0,0 -14.737,7.956 -41.496,-4.979c-12.461,-6.024 -17.246,-35.967 -17.246,-35.967c0,0 -39.674,-8.209 -43.403,-11.94c-8.632,-8.638 -14.775,-46.716 -14.775,-46.716c-0,0 -18.832,3.78 -36.419,-16.05c-7.109,-8.017 -9.489,-40.721 -9.489,-40.721c0,0 -24.481,-24.97 -26.569,-30.762c-31.777,-21.296 -36.995,-41.211 -33.534,-47.753c3.025,-5.717 19.792,1.634 45.895,15.425Z"/></clipPath><g clip-path="url(#_clip1)"><path d="M242.632,428.26l-130.914,287.984l407.461,185.227l130.915,-287.984l-407.462,-185.227Z" style="fill:#fee2cc;"/><path d="M626.957,473.643c-0,-0 -8.214,-48.551 -21.04,-68.824c-14.295,-22.595 -78.17,-65.957 -78.17,-65.957l167.4,1.816l8.224,107.386l-76.414,25.579Z" style="fill:#f17f65;"/><path d="M447.223,475.144c0,0 171.958,190.059 176.306,191.857c4.347,1.798 -12.365,49.663 -12.365,49.663l-91.674,-18.971l-72.267,-222.549Z" style="fill:#ef9189;"/><path d="M459.732,486.123c-0,0 -199.919,86.977 -201.946,89.307c-2.027,2.331 -49.384,-9.031 -49.384,-9.031l23.667,-49.98l227.663,-30.296Z" style="fill:#ef9189;"/><path d="M421.38,515.566c-0,0 -111.752,169.305 -112.155,172.578c-0.403,3.273 -42.986,9.033 -42.986,9.033l-6.771,-62.682l161.912,-118.929Z" style="fill:#ef9189;"/><path d="M453.308,507.455c-0,-0 7.136,240.599 9.137,244.481c2,3.882 -38.853,29.047 -38.853,29.047l-53.662,-67.998l83.378,-205.53Z" style="fill:#ef9189;"/><path d="M618.736,454.924c-0,-0 -8.759,-57.529 -88.045,-59.627c-57.002,-1.509 -99.283,66.823 -122.784,102.47c-20.712,31.416 -18.222,111.408 -18.222,111.408l69.113,-29.945l57.618,-29.592l64.809,-40.602l37.511,-54.112Z" style="fill:#f17f65;"/><path d="M283.013,63.104c0,0 22.568,28.763 -0.686,56.565c-12.034,14.388 -56.414,-37.356 -65.079,5.842c-1.934,9.64 -39.786,-12.938 -47.199,-10.026c-9.43,3.704 -4.878,32.223 -17.106,30.039c-33.751,-6.026 -52.628,-16.038 -42.93,30.093c3.782,17.99 -46.953,14.73 -46.953,14.73l-114.465,-195.817l207.211,-55.41l127.207,123.984Z" style="fill:#ef9189;"/><path d="M646.831,427.373c2.694,-3.785 18.539,-3.32 22.629,4.205c6.503,11.965 7.267,46.245 7.267,46.245l-31.379,-32.254c-0,-0 -7.465,-5.626 1.483,-18.196Z" style="fill:#fdc33d;"/></g><path d="M106.612,159.803c7.143,-4.975 15.859,-10.761 25.317,-16.422c-3.34,-2.051 -6.721,-4.124 -10.138,-6.216c-27.614,-16.906 -59.199,-35.945 -75.551,-49.722c-37.83,-31.876 -42.843,-55.31 -38.32,-61.472c6.478,-8.825 55.086,31.483 123.775,81.903c9.615,7.057 19.116,13.941 28.33,20.585c8.904,-4.038 17.774,-7.294 26.046,-9.132c-1.456,-1.177 -2.921,-2.361 -4.396,-3.552c-20.932,-16.899 -44.94,-35.955 -56.513,-49.421c-26.775,-31.154 -26.134,-52.923 -20.758,-58.356c7.701,-7.782 42.246,31.653 92.49,81.372c8.316,8.23 16.544,16.228 24.451,23.882c9.582,-1.435 18.851,-2.688 27.052,-3.731c-6.053,-6.625 -11.257,-12.795 -14.917,-18.071c-23.42,-33.749 -20.538,-55.336 -14.63,-60.186c8.462,-6.946 39.102,29.386 83.951,84.021c6.564,7.996 65.997,38.81 78.194,50.266c31.392,29.487 93.218,129.014 111.572,146.782c26.448,25.603 51.719,34.348 52.378,36.32c28.204,0.947 74.795,-10.974 88.01,-7.412c25.729,6.936 48.456,26.103 48.456,51.663c-0,9.758 -2.752,25.129 -10.002,35.197c3.995,19.567 5.578,51.81 5.578,51.81l-35.253,-34.642c-9.839,3.056 -17.475,3.129 -21.369,4.973c-4.27,13.238 -32.048,53.219 -47.956,62.483c-24.68,14.372 -49.706,38.09 -49.706,38.09c0,0 44.44,111.898 45.787,134.933c1.166,19.938 -40.511,7.516 -47.724,1.009c-3.741,-3.376 -10.943,35.892 -35.47,39.333c-9.279,1.302 -27.24,-30.041 -27.24,-30.041c-0,-0 -29.624,40.147 -47.075,36.963c-17.332,-3.162 -31.805,-43.831 -31.805,-43.831c-0,-0 -26.525,19.012 -52.085,16.964c-4.145,-0.332 -2.544,-45.714 -2.544,-45.714c0,0 -43.745,5.133 -53.575,-4.998c-4.047,-4.171 14.676,-39.519 14.676,-39.519c0,-0 -20.05,0.01 -37.999,-18.179c-4.565,-4.626 18.061,-32.26 18.061,-32.26c0,0 -25.454,-25.691 -14.576,-32.14c23.215,-13.765 148.259,-39.239 148.259,-39.239c0,0 0.015,-25.818 -7.275,-32.968c0,0 -24.365,0.394 -31.865,-6.805c-7.501,-7.199 -13.138,-36.387 -13.138,-36.387c-0,-0 -22.659,8.278 -42.97,-1.856c-14.326,-7.149 -20.497,-36.814 -20.497,-36.814c-0,0 -14.737,7.956 -41.496,-4.979c-12.461,-6.024 -17.246,-35.967 -17.246,-35.967c0,0 -39.674,-8.209 -43.403,-11.94c-8.632,-8.638 -14.775,-46.716 -14.775,-46.716c-0,0 -18.832,3.78 -36.419,-16.05c-7.109,-8.017 -9.489,-40.721 -9.489,-40.721c0,0 -24.481,-24.97 -26.569,-30.762c-31.777,-21.296 -36.995,-41.211 -33.534,-47.753c3.025,-5.717 19.792,1.634 45.895,15.425Z" style="fill:none;stroke:#4f1811;stroke-width:12.15px;"/><path d="M521.527,546.337l-17.637,23.911l15.198,69.521c0,0 -4.176,16.923 -7.33,18.791c-3.154,1.868 -11.592,-7.582 -11.592,-7.582l-15.953,-87.86" style="fill:#fdc33d;stroke:#4f1811;stroke-width:10.28px;"/><path d="M643.622,387.981l4.862,13.849" style="fill:none;stroke:#4f1811;stroke-width:12.65px;"/><path d="M472.677,545.389l-22.553,19.344l-0.789,71.158c-0,0 -7.868,15.554 -11.36,16.667c-3.493,1.113 -9.595,-9.99 -9.595,-9.99l4.169,-89.199" style="fill:#fdc33d;stroke:#4f1811;stroke-width:10.28px;"/></g></svg>